<svg width="24" height="24" viewBox="0 0 24 24" fill="none" xmlns="http://www.w3.org/2000/svg">
<g clip-path="url(#clip0_208_748)">
<path fill-rule="evenodd" clip-rule="evenodd" d="M3.71553 3H6.95164C7.90528 3 8.81985 3.39509 9.49417 4.09835C10.1685 4.80161 10.5473 5.75544 10.5473 6.75V8.625C10.5473 9.661 11.3528 10.5 12.3452 10.5H14.143C15.0966 10.5 16.0112 10.8951 16.6855 11.5983C17.3599 12.3016 17.7387 13.2554 17.7387 14.25V22.125C17.7387 23.16 16.9333 24 15.9408 24H3.71553C3.23872 24 2.78143 23.8025 2.44427 23.4508C2.10711 23.0992 1.91769 22.6223 1.91769 22.125V4.875C1.91769 3.839 2.72313 3 3.71553 3ZM10.5473 13.5C10.5473 13.3011 10.4716 13.1103 10.3367 12.9697C10.2018 12.829 10.0189 12.75 9.82819 12.75C9.63746 12.75 9.45455 12.829 9.31968 12.9697C9.18482 13.1103 9.10905 13.3011 9.10905 13.5V15.75H6.95164C6.76092 15.75 6.578 15.829 6.44314 15.9697C6.30828 16.1103 6.23251 16.3011 6.23251 16.5C6.23251 16.6989 6.30828 16.8897 6.44314 17.0303C6.578 17.171 6.76092 17.25 6.95164 17.25H9.10905V19.5C9.10905 19.6989 9.18482 19.8897 9.31968 20.0303C9.45455 20.171 9.63746 20.25 9.82819 20.25C10.0189 20.25 10.2018 20.171 10.3367 20.0303C10.4716 19.8897 10.5473 19.6989 10.5473 19.5V17.25H12.7047C12.8955 17.25 13.0784 17.171 13.2132 17.0303C13.3481 16.8897 13.4239 16.6989 13.4239 16.5C13.4239 16.3011 13.3481 16.1103 13.2132 15.9697C13.0784 15.829 12.8955 15.75 12.7047 15.75H10.5473V13.5Z" fill="#FF4500"/>
<path d="M11.9856 6.74992C11.9873 5.48846 11.5517 4.26888 10.7592 3.31592C12.3637 3.75588 13.8273 4.63239 15.0003 5.8558C16.1734 7.07922 17.0138 8.60563 17.4357 10.2789C16.522 9.4524 15.3526 8.99817 14.143 8.99992H12.3452C12.2498 8.99992 12.1584 8.96041 12.0909 8.89008C12.0235 8.81976 11.9856 8.72437 11.9856 8.62492V6.74992Z" fill="#FF4500"/>
</g>
<defs>
<clipPath id="clip0_208_748">
<rect width="23.0123" height="24" fill="white"/>
</clipPath>
</defs>
</svg>
