<svg width="24" height="24" viewBox="0 0 24 24" fill="none" xmlns="http://www.w3.org/2000/svg">
<path d="M10.653 0.0832269C5.12175 0.684445 0.672741 5.13346 0.0715229 10.5444C-0.529695 16.1959 2.71688 21.2461 7.64687 23.17C8.0076 23.2902 8.36833 23.0498 8.36833 22.5688V20.6449C8.36833 20.6449 7.88736 20.7651 7.28614 20.7651C5.60273 20.7651 4.88127 19.3222 4.76102 18.4805C4.64078 17.9995 4.40029 17.6388 4.03956 17.2781C3.67883 17.1578 3.55859 17.1578 3.55859 17.0376C3.55859 16.7971 3.91932 16.7971 4.03956 16.7971C4.76102 16.7971 5.36224 17.6388 5.60273 17.9995C6.20395 18.9615 6.92541 19.202 7.28614 19.202C7.76711 19.202 8.12784 19.0817 8.36833 18.9615C8.48857 18.1198 8.84931 17.2781 9.57077 16.7971C6.80516 16.1959 4.76102 14.6327 4.76102 11.9873C4.76102 10.6647 5.36224 9.34198 6.20395 8.38004C6.0837 8.13955 5.96346 7.53833 5.96346 6.69662C5.96346 6.21565 5.96346 5.49419 6.32419 4.77273C6.32419 4.77273 8.0076 4.77273 9.69101 6.33589C10.2922 6.09541 11.1339 5.97516 11.9756 5.97516C12.8173 5.97516 13.659 6.09541 14.3805 6.33589C15.9437 4.77273 17.7473 4.77273 17.7473 4.77273C17.9878 5.49419 17.9878 6.21565 17.9878 6.69662C17.9878 7.65857 17.8676 8.13955 17.7473 8.38004C18.589 9.34198 19.1903 10.5444 19.1903 11.9873C19.1903 14.6327 17.1461 16.1959 14.3805 16.7971C15.102 17.3983 15.5829 18.4805 15.5829 19.5627V22.689C15.5829 23.0498 15.9437 23.4105 16.4247 23.2902C20.8737 21.4866 24 17.1578 24 12.1076C24 4.89297 17.8676 -0.758478 10.653 0.0832269Z" fill="#FF4500"/>
</svg>
