<svg width="24" height="26" viewBox="0 0 24 26" fill="none" xmlns="http://www.w3.org/2000/svg">
<path d="M20.3424 2.84259C20.1904 2.66179 19.9736 2.55859 19.7464 2.55859H4.2536C4.0264 2.55859 3.8096 2.66179 3.6576 2.84259C3.5056 3.02339 3.4336 3.26474 3.4584 3.50524L5.22 20.4109C5.2552 20.7546 5.4832 21.042 5.7952 21.1366L11.7792 22.9591C11.8512 22.9813 11.9256 22.9924 11.9992 22.9924C12.0728 22.9924 12.1472 22.9813 12.2192 22.9591L18.2032 21.1366C18.5152 21.042 18.7424 20.7546 18.7784 20.4109L20.5408 3.50524C20.5664 3.26474 20.4944 3.02339 20.3424 2.84259ZM16.5032 8.89512H9.3592L9.5288 11.063H16.3312L15.8208 17.4678L12.0024 18.7624L11.9648 18.7496L8.1888 17.4661L7.9824 14.8564H9.832L9.9128 15.8704L12.0224 16.3659L14.0952 15.8696L14.3152 13.1294H7.8432L7.3424 6.82274H16.6696L16.5032 8.89512Z" fill="#FF4500"/>
</svg>
