<svg width="23" height="26" viewBox="0 0 23 26" fill="none" xmlns="http://www.w3.org/2000/svg">
<path d="M20.1636 3.4668H2.43636C1.34811 3.4668 0.466667 4.34824 0.466667 5.43649V23.1638C0.466667 24.252 1.34811 25.1335 2.43636 25.1335H20.1636C21.2519 25.1335 22.1333 24.252 22.1333 23.1638V5.43649C22.1333 4.34824 21.2519 3.4668 20.1636 3.4668ZM11.3 19.5986C11.3 21.3487 10.2265 22.3296 8.44394 22.3296C6.68303 22.3296 5.56129 21.3004 5.56129 19.636H7.46894C7.47386 20.2535 7.8422 20.6435 8.41144 20.6435C8.99644 20.6435 9.31061 20.2752 9.31061 19.5819V14.2982H11.3V19.5986ZM16.698 22.3296C14.7194 22.3296 13.4745 21.3979 13.4411 19.8911H15.3379C15.3861 20.4604 15.9544 20.8228 16.7787 20.8228C17.5213 20.8228 18.0314 20.4653 18.0314 19.9502C18.0314 19.5169 17.6897 19.2835 16.7955 19.1052L15.7663 18.8994C14.3353 18.6285 13.5986 17.8485 13.5986 16.6185C13.5986 15.09 14.8238 14.0874 16.7088 14.0874C18.5406 14.0874 19.8081 15.0791 19.8406 16.5259H18.0039C17.9605 15.9734 17.4346 15.5883 16.7344 15.5883C16.0361 15.5883 15.5762 15.9192 15.5762 16.4392C15.5762 16.8676 15.9229 17.1168 16.7462 17.2793L17.7527 17.4743C19.298 17.7727 19.9913 18.471 19.9913 19.7119C19.9923 21.3438 18.7464 22.3296 16.698 22.3296Z" fill="#FF4500"/>
</svg>
