<svg width="22" height="18" viewBox="0 0 22 18" fill="none" xmlns="http://www.w3.org/2000/svg">
<path d="M22 2.11658C21.1906 2.47592 20.3207 2.71792 19.4077 2.827C20.3399 2.26875 21.0558 1.38417 21.3923 0.33C20.5205 0.847 19.5543 1.22283 18.5258 1.42542C17.7036 0.548167 16.5293 0 15.2313 0C12.3172 0 10.1759 2.71883 10.8341 5.54125C7.084 5.35333 3.75833 3.55667 1.53175 0.825917C0.34925 2.8545 0.9185 5.50825 2.92783 6.85208C2.189 6.82825 1.49233 6.62567 0.884583 6.28742C0.835083 8.37833 2.33383 10.3345 4.5045 10.7699C3.86925 10.9422 3.1735 10.9826 2.46583 10.8469C3.03967 12.6399 4.70617 13.9443 6.6825 13.981C4.785 15.4687 2.39433 16.1333 0 15.851C1.99742 17.1316 4.37067 17.8787 6.919 17.8787C15.2992 17.8787 20.0338 10.8011 19.7477 4.45317C20.6296 3.81608 21.395 3.02133 22 2.11658Z" fill="white"/>
</svg>
