<?xml version="1.0" standalone="no"?>
<!DOCTYPE svg PUBLIC "-//W3C//DTD SVG 20010904//EN"
 "http://www.w3.org/TR/2001/REC-SVG-20010904/DTD/svg10.dtd">
<svg version="1.0" xmlns="http://www.w3.org/2000/svg"
 width="3840.000000pt" height="2159.000000pt" viewBox="0 0 3840.000000 2159.000000"
 preserveAspectRatio="xMidYMid meet">

<g transform="translate(0.000000,2159.000000) scale(0.100000,-0.100000)"
fill="#000000" stroke="none">
<path d="M11060 19104 c0 -19 4 -33 9 -30 11 7 43 -28 34 -37 -3 -4 -2 -7 4
-7 5 0 25 -24 43 -52 19 -29 38 -57 42 -63 19 -24 78 -115 78 -120 0 -3 19
-31 43 -62 23 -30 47 -62 52 -71 6 -8 16 -22 24 -31 7 -9 49 -70 92 -136 43
-66 94 -142 114 -170 52 -71 73 -103 174 -255 49 -74 98 -145 109 -157 11 -12
18 -24 15 -27 -3 -3 2 -8 11 -12 9 -3 13 -10 10 -15 -3 -5 -1 -9 5 -9 9 0 201
-281 201 -294 0 -3 7 -14 15 -23 28 -35 81 -107 115 -159 19 -29 61 -90 92
-136 116 -166 138 -199 138 -204 0 -2 7 -12 15 -21 35 -39 93 -122 140 -198
64 -104 135 -205 143 -205 4 0 13 -13 20 -29 7 -17 35 -60 62 -96 27 -37 52
-75 55 -86 4 -10 10 -19 15 -19 5 0 19 -17 31 -37 13 -21 71 -105 129 -188 58
-82 118 -172 134 -200 16 -27 42 -66 57 -86 16 -20 26 -38 23 -41 -2 -3 7 -13
21 -22 14 -9 25 -22 25 -30 0 -7 9 -21 20 -31 11 -10 20 -23 20 -28 0 -6 7
-19 17 -29 9 -10 21 -27 27 -37 26 -44 94 -144 165 -241 43 -58 104 -145 136
-195 32 -49 61 -92 64 -95 4 -3 12 -17 18 -32 12 -28 33 -56 71 -95 12 -13 22
-26 22 -29 0 -3 9 -18 20 -32 28 -37 90 -130 90 -136 0 -6 61 -97 70 -106 9
-8 123 -169 162 -229 10 -14 24 -35 32 -46 66 -91 88 -124 102 -154 16 -35 25
-47 61 -87 12 -13 19 -24 15 -24 -4 0 0 -6 8 -13 19 -15 104 -136 113 -161 4
-10 16 -30 28 -45 53 -69 118 -161 113 -161 -4 0 8 -16 25 -35 17 -20 31 -39
31 -43 0 -4 14 -23 30 -42 16 -19 30 -38 30 -42 0 -10 72 -112 82 -116 5 -2 8
-10 8 -18 0 -8 3 -14 8 -14 4 0 21 -23 37 -51 17 -29 37 -59 46 -68 16 -18 99
-139 194 -286 33 -49 66 -95 75 -102 8 -7 11 -13 7 -13 -5 0 9 -21 30 -47 22
-27 59 -77 83 -113 24 -36 68 -101 98 -145 30 -44 73 -107 95 -140 22 -33 43
-62 47 -65 10 -7 90 -128 90 -135 0 -3 5 -11 10 -18 6 -7 33 -46 60 -87 26
-41 58 -85 69 -97 12 -12 21 -24 21 -27 0 -3 21 -35 47 -73 26 -37 71 -104
101 -148 30 -44 62 -89 72 -100 11 -11 19 -24 20 -30 0 -5 8 -19 18 -30 9 -11
34 -45 54 -75 21 -30 51 -73 67 -95 17 -22 40 -58 52 -80 26 -48 73 -118 93
-138 8 -8 13 -17 10 -20 -3 -3 3 -12 15 -19 12 -7 21 -16 21 -21 0 -4 9 -18
21 -30 11 -12 25 -32 30 -44 4 -12 31 -53 59 -92 27 -38 50 -74 50 -80 0 -6 4
-11 9 -11 5 0 12 -8 15 -18 4 -10 15 -28 26 -39 17 -19 110 -150 135 -192 20
-33 79 -116 86 -121 3 -3 19 -29 35 -59 16 -29 39 -64 50 -77 12 -12 20 -25
18 -27 -3 -2 7 -12 21 -21 14 -9 25 -21 25 -25 0 -10 74 -126 108 -171 11 -14
26 -38 35 -55 8 -16 25 -40 36 -52 12 -12 21 -26 21 -32 0 -5 4 -11 9 -13 10
-4 121 -167 121 -179 0 -4 5 -9 12 -11 24 -8 -3 -55 -75 -129 -40 -42 -86 -94
-102 -115 -73 -95 -157 -194 -167 -194 -4 0 -8 -5 -8 -11 0 -6 -13 -23 -30
-39 -16 -15 -27 -30 -24 -33 3 -3 -4 -8 -15 -12 -12 -3 -21 -11 -21 -17 0 -6
-26 -40 -57 -76 -32 -36 -87 -99 -122 -141 -34 -42 -74 -87 -86 -101 -13 -14
-45 -50 -72 -81 -26 -31 -65 -76 -87 -100 -21 -24 -131 -152 -244 -284 -113
-132 -210 -244 -216 -250 -7 -5 -38 -41 -70 -80 -32 -38 -74 -88 -93 -110
-106 -119 -203 -233 -203 -239 0 -4 -10 -17 -22 -30 -71 -72 -184 -201 -227
-257 -27 -36 -71 -87 -97 -114 -27 -27 -48 -52 -47 -55 1 -4 -8 -13 -21 -20
-13 -7 -30 -24 -37 -39 -7 -14 -29 -44 -49 -66 -19 -23 -55 -65 -80 -95 -25
-29 -54 -63 -65 -74 -11 -12 -113 -129 -226 -261 -113 -132 -222 -258 -241
-280 -87 -99 -247 -283 -269 -309 -13 -17 -43 -51 -66 -77 -24 -25 -43 -51
-43 -58 0 -6 -4 -11 -9 -11 -5 0 -39 -35 -75 -78 -37 -42 -77 -88 -89 -102
-13 -14 -36 -43 -52 -65 -16 -22 -48 -59 -70 -81 -53 -55 -133 -148 -169 -198
-16 -23 -49 -60 -73 -84 -24 -24 -43 -44 -43 -45 0 -2 -23 -27 -51 -57 -28
-30 -54 -62 -57 -71 -6 -15 -64 -83 -147 -175 -16 -18 -43 -50 -60 -70 -16
-21 -48 -59 -71 -84 -23 -25 -50 -56 -60 -69 -10 -13 -28 -33 -39 -45 -11 -11
-74 -84 -140 -161 -66 -77 -132 -152 -147 -168 -16 -15 -28 -31 -28 -35 0 -4
-24 -32 -53 -63 -28 -31 -61 -67 -71 -80 -11 -13 -49 -58 -86 -99 -36 -41 -79
-91 -95 -111 -17 -20 -79 -94 -140 -164 -104 -121 -135 -157 -248 -281 -26
-28 -47 -54 -47 -58 0 -3 -9 -16 -20 -28 -23 -25 -28 -31 -87 -103 -22 -27
-65 -75 -94 -106 -30 -30 -65 -70 -79 -88 -44 -59 -102 -125 -161 -185 -33
-33 -59 -64 -59 -69 0 -5 -6 -14 -12 -21 -7 -7 -29 -32 -48 -56 -19 -24 -55
-67 -79 -95 -24 -27 -50 -57 -57 -65 -7 -8 -31 -35 -54 -60 -23 -25 -54 -61
-69 -80 -14 -19 -31 -39 -38 -45 -6 -5 -41 -46 -79 -90 -37 -44 -71 -79 -76
-77 -18 5 -20 -29 -3 -48 18 -20 35 -20 727 -20 639 0 708 2 708 16 0 15 55
91 89 124 9 9 32 34 51 56 19 22 58 67 87 100 28 32 84 97 123 144 40 47 89
103 109 124 20 22 46 53 58 69 12 16 37 45 55 65 19 21 37 45 41 55 3 9 11 17
16 17 5 0 12 9 16 19 3 11 15 23 26 26 10 4 19 13 19 21 0 8 4 14 8 14 10 0
152 165 152 176 0 7 52 66 161 181 38 40 69 77 69 82 0 6 8 18 18 28 10 10 45
50 77 88 33 39 77 87 97 108 21 21 38 41 38 43 0 3 39 50 88 106 89 102 106
122 271 314 207 241 318 370 366 424 28 31 63 72 79 91 16 19 69 80 118 136
48 56 88 104 88 106 0 2 21 26 48 53 64 67 152 169 182 213 14 20 39 51 57 69
18 18 33 35 33 38 0 2 16 18 35 35 19 17 55 58 81 92 62 83 125 156 207 241
37 38 67 73 67 77 0 4 55 72 123 150 67 77 139 162 160 188 22 25 53 62 71 81
28 31 301 346 367 424 13 15 47 54 74 85 28 31 73 83 100 115 28 32 97 113
155 180 58 67 131 153 163 191 32 39 87 102 121 140 66 73 115 131 179 212 20
26 73 86 117 133 44 46 80 90 80 96 0 7 4 14 9 16 7 3 42 42 156 178 51 60
280 324 321 370 18 19 93 107 169 195 75 88 141 161 145 163 5 2 23 -19 41
-45 17 -26 41 -58 52 -71 11 -12 16 -22 12 -22 -5 0 1 -7 13 -16 12 -8 22 -18
22 -23 0 -9 123 -200 144 -223 9 -10 16 -21 16 -25 0 -9 82 -117 92 -121 4 -2
8 -10 8 -18 0 -8 5 -14 10 -14 6 0 10 -4 10 -9 0 -9 98 -161 110 -171 3 -3 27
-37 53 -76 26 -39 54 -77 62 -84 8 -7 15 -16 15 -21 0 -4 30 -50 67 -101 37
-51 81 -116 98 -144 58 -97 97 -154 106 -154 5 0 9 -7 9 -15 0 -8 9 -20 20
-27 11 -7 20 -16 20 -21 0 -12 102 -166 222 -333 59 -83 108 -156 108 -162 0
-7 3 -12 8 -12 9 0 92 -123 92 -138 0 -5 4 -12 9 -14 4 -1 20 -22 35 -45 14
-24 31 -43 37 -43 5 0 8 -4 5 -8 -3 -5 3 -15 12 -24 18 -16 24 -25 77 -108 19
-30 38 -59 43 -65 4 -5 39 -57 77 -114 87 -128 87 -128 161 -231 33 -47 63
-92 67 -100 4 -8 23 -35 42 -60 42 -55 68 -100 58 -101 -5 0 0 -4 10 -8 10 -4
18 -10 18 -14 -1 -4 7 -16 17 -26 29 -32 45 -56 155 -228 28 -44 80 -121 115
-170 35 -48 94 -133 131 -188 104 -151 196 -281 218 -310 14 -18 80 -119 92
-142 18 -35 122 -178 132 -181 5 -2 9 -8 9 -13 0 -5 16 -31 36 -59 20 -27 32
-50 27 -50 -4 0 -3 -4 2 -8 12 -9 53 -63 109 -145 23 -34 90 -131 149 -215 59
-85 115 -168 124 -185 17 -35 73 -110 85 -115 5 -2 6 -8 3 -12 -3 -5 3 -15 13
-22 10 -7 21 -17 23 -23 8 -21 103 -160 111 -163 4 -2 8 -8 8 -14 0 -6 13 -27
29 -47 15 -20 50 -67 76 -106 27 -38 69 -99 94 -135 107 -154 141 -206 141
-215 0 -5 13 -24 30 -41 16 -18 27 -34 25 -36 -2 -2 14 -24 36 -48 22 -25 60
-79 84 -120 25 -41 77 -120 116 -175 38 -55 82 -118 97 -140 15 -22 31 -45 37
-51 5 -6 23 -32 39 -57 l30 -47 2406 0 c1858 0 2409 3 2418 12 18 18 15 34
-14 65 -32 34 -110 147 -188 271 -32 50 -62 92 -67 92 -6 0 -8 4 -4 9 3 5 -3
16 -13 23 -10 7 -75 99 -145 203 -70 105 -170 251 -222 325 -52 74 -109 159
-126 188 -17 30 -38 56 -45 59 -8 3 -12 9 -9 13 3 5 -1 12 -8 17 -14 8 -117
155 -117 166 0 3 -14 26 -30 49 -17 24 -55 79 -85 123 -50 73 -201 290 -293
422 -101 143 -202 292 -202 297 0 2 -26 41 -57 86 -69 98 -216 309 -279 400
-24 36 -82 119 -129 185 -46 66 -100 147 -120 181 -20 33 -68 102 -106 153
-38 51 -69 95 -70 99 0 4 -16 27 -34 52 -19 25 -42 58 -50 73 -9 15 -55 83
-103 150 -88 122 -198 282 -217 314 -28 48 -85 132 -92 135 -5 1 -24 28 -44
58 -90 138 -152 230 -196 293 -171 241 -263 377 -263 389 0 7 -17 32 -37 54
-43 47 -143 188 -143 201 0 5 -13 24 -30 43 -16 19 -29 38 -30 43 0 4 -29 47
-64 95 -35 48 -75 106 -90 128 -14 21 -45 67 -69 100 -117 169 -146 214 -140
214 4 0 -1 6 -10 13 -19 14 -132 170 -149 207 -6 14 -45 72 -86 130 -185 263
-322 462 -466 676 -85 127 -162 236 -170 244 -9 7 -16 19 -16 26 0 8 -4 14 -8
14 -5 0 -16 15 -25 33 -10 17 -44 70 -78 117 -33 47 -71 101 -84 120 -14 19
-67 96 -120 170 -52 74 -110 162 -130 196 -19 34 -44 71 -55 84 -11 13 -20 26
-20 29 0 3 -16 24 -35 46 -20 22 -38 48 -41 58 -3 9 -9 17 -13 17 -4 0 -18 19
-31 43 -30 53 -143 221 -152 225 -3 2 -26 33 -49 70 -24 37 -46 69 -50 72 -8
7 -141 205 -162 243 -10 18 -26 38 -35 45 -9 6 -12 12 -7 12 5 0 -1 9 -13 20
-12 11 -43 53 -68 93 -62 95 -167 252 -204 302 -16 22 -73 103 -125 180 -53
77 -128 185 -166 239 -38 55 -69 105 -69 112 0 7 17 30 37 51 20 21 36 41 35
46 -1 4 2 7 8 7 5 0 46 46 92 102 46 57 90 110 98 118 8 9 51 58 95 109 44 52
114 133 155 180 41 48 100 116 130 151 30 35 62 70 70 79 9 9 40 45 70 81 30
36 57 67 60 70 5 5 156 181 234 273 49 59 52 62 142 163 38 43 110 126 158
184 48 58 102 121 119 140 53 56 110 123 142 166 16 21 46 56 65 76 74 77 155
170 165 188 22 39 161 199 174 199 8 1 12 4 8 7 -3 3 7 17 24 31 16 14 29 29
29 34 0 5 50 67 111 137 62 70 123 141 138 157 14 17 48 57 76 90 27 33 70 83
95 110 25 28 72 81 105 120 33 38 76 87 95 110 20 22 68 78 107 125 40 47 84
99 100 116 15 17 48 55 73 83 25 29 66 76 92 104 26 29 48 58 48 65 0 6 4 12
9 12 10 0 148 158 201 231 20 26 47 58 60 71 36 34 161 175 179 201 22 33 105
129 172 199 33 34 59 66 59 71 0 5 34 48 76 95 42 48 100 114 130 148 29 34
70 81 91 106 61 73 276 320 302 348 13 14 36 41 50 60 15 19 44 55 66 79 22
25 63 70 90 101 28 30 82 93 120 139 39 47 91 107 116 135 91 99 189 214 189
221 0 4 16 21 35 38 19 17 35 34 35 37 0 4 18 27 41 51 23 24 84 97 136 162
52 64 99 117 104 117 5 0 9 4 9 9 0 4 21 30 48 57 26 27 75 85 109 129 34 44
87 106 117 137 31 31 56 61 56 65 0 4 22 31 48 59 56 62 77 86 159 184 35 41
69 78 78 82 11 7 12 13 3 33 l-11 25 -714 0 c-585 0 -713 -2 -713 -13 0 -12
-80 -123 -98 -137 -4 -3 -33 -35 -64 -71 -32 -37 -73 -84 -90 -105 -59 -67
-113 -131 -132 -155 -10 -13 -42 -49 -70 -79 -61 -65 -126 -143 -165 -196 -15
-22 -52 -63 -81 -91 -29 -29 -51 -53 -48 -53 2 0 -20 -25 -49 -57 -29 -31 -53
-60 -53 -64 0 -4 -6 -14 -13 -21 -7 -7 -37 -42 -67 -77 -30 -36 -76 -86 -102
-112 -27 -26 -48 -51 -48 -56 0 -4 -10 -19 -23 -33 -12 -14 -53 -61 -91 -105
-38 -44 -95 -110 -128 -148 -33 -37 -70 -79 -81 -95 -12 -15 -28 -34 -37 -42
-8 -8 -40 -44 -70 -80 -30 -36 -88 -104 -130 -151 -41 -47 -106 -123 -145
-169 -38 -45 -77 -90 -85 -99 -79 -86 -210 -241 -210 -250 0 -6 -4 -11 -9 -11
-5 0 -45 -42 -88 -92 -43 -51 -82 -97 -88 -103 -6 -5 -29 -32 -50 -60 -21 -27
-52 -62 -67 -78 -15 -15 -28 -32 -28 -37 0 -6 -4 -10 -9 -10 -8 0 -91 -93
-141 -160 -46 -60 -85 -105 -129 -147 -24 -24 -41 -43 -36 -43 4 0 -4 -9 -18
-20 -15 -12 -32 -32 -39 -45 -7 -12 -94 -117 -194 -232 -99 -114 -194 -223
-210 -242 -16 -19 -51 -60 -79 -91 -65 -73 -198 -227 -404 -469 -36 -42 -68
-78 -71 -81 -4 -3 -78 -88 -164 -190 -86 -102 -167 -196 -181 -210 -14 -14
-25 -31 -25 -38 0 -6 -4 -12 -10 -12 -14 0 -51 -42 -141 -157 -44 -56 -91
-111 -104 -121 -14 -11 -25 -25 -25 -31 0 -6 -4 -11 -9 -11 -9 0 -80 -81 -131
-150 -26 -35 -85 -102 -132 -150 -15 -15 -24 -30 -21 -34 4 -3 -1 -6 -10 -6
-10 0 -16 -4 -15 -9 2 -5 -6 -17 -17 -27 -11 -11 -36 -39 -55 -64 -19 -25 -48
-61 -66 -80 -66 -75 -251 -288 -290 -335 -71 -86 -116 -130 -120 -119 -4 9
-103 152 -370 534 -25 36 -79 112 -120 170 -41 58 -80 116 -86 130 -22 45 -90
140 -99 140 -6 0 -8 4 -5 8 3 5 -3 16 -12 25 -24 22 -32 33 -80 112 -24 39
-72 111 -107 160 -72 101 -63 88 -197 281 -54 78 -98 144 -98 147 0 11 -61 97
-69 97 -3 0 -15 15 -26 33 -10 17 -21 34 -24 37 -11 10 -68 95 -73 111 -4 9
-48 75 -100 148 -183 260 -298 426 -310 451 -7 14 -20 32 -30 40 -9 8 -49 65
-88 125 -40 61 -89 135 -109 165 -20 30 -63 93 -97 140 -33 47 -98 140 -145
207 -46 67 -110 159 -142 205 -63 92 -92 134 -191 286 -37 56 -71 102 -76 102
-6 0 -10 7 -10 15 0 8 -4 15 -9 15 -5 0 -11 8 -14 18 -4 9 -48 78 -100 152
-211 305 -334 485 -377 551 -25 38 -55 80 -67 94 -13 13 -23 28 -23 33 0 5 -9
17 -20 27 -11 10 -20 21 -20 26 0 4 -18 33 -40 65 -23 33 -48 70 -57 84 -16
23 -130 186 -265 378 -32 45 -58 87 -58 93 0 6 -11 25 -25 43 -14 17 -32 40
-40 51 -8 11 -26 34 -40 50 -14 17 -44 62 -67 100 -45 76 -88 138 -100 143 -5
2 -8 8 -8 13 0 8 -98 152 -138 204 -4 6 -18 26 -32 45 -13 19 -28 38 -33 41
-5 4 -6 12 -3 18 5 8 -641 11 -2418 11 l-2426 0 0 -36z m25 16 c3 -5 1 -10 -4
-10 -6 0 -11 5 -11 10 0 6 2 10 4 10 3 0 8 -4 11 -10z m4136 -1112 c14 -12 56
-66 89 -114 8 -13 41 -59 73 -103 31 -44 57 -85 57 -91 0 -5 3 -10 8 -10 4 0
16 -17 27 -37 11 -21 53 -81 93 -135 39 -53 72 -100 72 -104 0 -3 10 -19 23
-34 12 -16 50 -68 85 -117 34 -48 77 -108 95 -132 17 -24 43 -61 57 -82 14
-21 48 -70 75 -109 28 -39 67 -99 88 -133 21 -34 48 -71 61 -82 12 -12 21 -26
19 -32 -2 -6 8 -20 22 -31 14 -11 25 -24 25 -28 1 -5 14 -25 30 -44 17 -19 30
-38 30 -42 0 -4 20 -36 45 -70 25 -35 58 -81 72 -103 14 -22 33 -45 42 -52 9
-7 12 -13 8 -13 -7 0 27 -49 81 -115 4 -5 17 -25 27 -42 11 -18 23 -33 26 -33
4 0 10 -9 14 -20 3 -11 24 -42 46 -70 22 -28 37 -56 33 -62 -4 -6 -3 -8 3 -5
6 4 19 -9 29 -28 10 -19 22 -35 27 -35 4 0 6 -4 3 -9 -3 -5 1 -12 10 -15 8 -3
12 -10 9 -16 -3 -5 0 -10 7 -10 11 -1 24 -17 80 -105 7 -11 16 -22 19 -25 3
-3 14 -21 24 -40 10 -19 21 -37 25 -40 4 -3 16 -19 26 -36 15 -25 62 -91 121
-170 4 -5 13 -17 18 -26 16 -26 121 -177 180 -258 30 -41 71 -100 91 -130 21
-30 44 -61 51 -68 7 -7 13 -16 13 -20 0 -4 12 -20 26 -37 14 -16 39 -55 55
-85 16 -31 50 -80 75 -108 25 -29 42 -52 37 -52 -4 0 -1 -6 7 -13 8 -7 20 -20
25 -28 40 -63 111 -165 117 -167 5 -2 8 -8 8 -13 0 -6 5 -15 10 -22 44 -53
271 -374 324 -460 27 -43 55 -81 62 -84 8 -3 14 -11 14 -18 0 -7 4 -15 8 -17
7 -3 70 -94 97 -140 6 -9 42 -60 80 -113 142 -197 175 -245 175 -255 0 -6 4
-10 10 -10 5 0 22 -21 37 -47 15 -27 30 -50 33 -53 4 -3 23 -30 43 -60 20 -30
47 -65 59 -77 12 -12 19 -25 16 -29 -4 -3 4 -16 16 -28 25 -23 159 -216 151
-216 -3 0 -1 -6 5 -12 29 -36 169 -231 260 -363 25 -36 68 -97 95 -135 89
-122 179 -251 210 -300 61 -97 99 -150 107 -150 5 0 6 -5 3 -10 -3 -6 1 -13 9
-16 9 -3 16 -12 16 -20 0 -8 4 -14 9 -14 8 0 58 -72 115 -164 10 -17 28 -43
40 -58 11 -15 44 -59 71 -98 28 -39 71 -99 97 -133 26 -34 48 -66 48 -71 0 -5
15 -27 34 -50 18 -23 36 -51 40 -63 4 -13 12 -23 17 -23 5 0 9 -7 9 -15 0 -8
8 -15 18 -16 11 0 12 -2 4 -6 -9 -3 -3 -14 18 -34 16 -16 30 -33 30 -38 0 -5
3 -11 8 -13 4 -2 56 -76 116 -166 60 -90 123 -181 140 -202 36 -44 126 -173
141 -201 5 -10 13 -19 17 -19 5 0 8 -5 8 -11 0 -6 11 -25 25 -43 27 -33 34
-43 50 -68 21 -32 99 -143 109 -155 15 -16 68 -93 138 -203 34 -52 67 -99 74
-105 6 -5 28 -35 48 -65 20 -30 40 -60 46 -67 5 -7 10 -16 10 -22 0 -5 3 -11
8 -13 4 -1 34 -41 67 -88 48 -69 114 -162 162 -225 5 -6 26 -37 48 -70 22 -33
44 -64 48 -70 4 -5 35 -52 67 -103 33 -51 66 -95 75 -98 8 -4 15 -12 15 -19 0
-7 3 -15 8 -17 8 -3 116 -164 138 -205 7 -12 17 -28 23 -35 15 -17 60 -79 91
-123 14 -20 30 -42 35 -48 6 -7 37 -50 70 -97 32 -47 61 -87 65 -90 6 -6 24
-35 46 -75 9 -16 25 -37 35 -46 11 -9 19 -22 19 -29 0 -7 8 -20 18 -29 9 -9
24 -26 32 -38 8 -12 34 -49 58 -82 23 -33 42 -64 42 -67 0 -4 18 -31 40 -60
22 -29 40 -58 40 -64 0 -5 3 -10 8 -10 4 -1 27 -30 52 -66 25 -36 60 -84 77
-107 18 -23 33 -45 33 -49 0 -4 7 -16 15 -25 33 -40 180 -246 264 -373 49 -74
97 -145 106 -157 8 -13 15 -25 15 -28 0 -3 5 -12 12 -19 32 -32 65 -73 71 -86
6 -13 64 -98 85 -125 4 -5 28 -39 52 -75 25 -36 48 -69 52 -75 33 -44 78 -107
101 -140 15 -22 52 -74 82 -115 30 -41 64 -93 76 -115 22 -40 82 -123 115
-161 11 -11 24 -27 29 -35 6 -9 33 -51 62 -95 28 -43 55 -84 60 -90 4 -5 13
-17 18 -26 22 -34 53 -77 117 -164 37 -51 64 -95 61 -98 -4 -3 -2 -6 4 -6 8 0
66 -77 118 -159 6 -8 15 -21 22 -28 6 -7 15 -22 18 -33 3 -11 11 -20 16 -20 6
0 7 -4 4 -10 -3 -5 1 -10 10 -10 9 0 14 -4 10 -9 -3 -6 3 -14 12 -20 10 -6 15
-11 11 -11 -4 0 4 -11 17 -25 13 -14 52 -71 87 -127 34 -55 90 -137 123 -182
63 -84 113 -155 130 -184 6 -9 27 -38 48 -65 20 -27 37 -52 37 -56 0 -5 9 -19
21 -32 12 -13 36 -47 55 -76 19 -28 41 -57 49 -63 8 -7 15 -18 15 -24 0 -7 8
-21 18 -32 9 -10 31 -39 47 -64 17 -25 36 -52 44 -60 8 -8 20 -29 27 -46 7
-18 19 -38 27 -46 7 -7 28 -34 47 -61 18 -26 37 -47 41 -47 3 0 9 -8 13 -17 6
-21 23 -47 50 -79 10 -13 24 -32 30 -42 18 -32 89 -136 103 -152 21 -23 168
-233 183 -260 7 -14 19 -31 27 -38 7 -7 13 -19 13 -25 0 -9 -258 -12 -1086
-11 l-1086 1 -72 99 c-145 199 -216 302 -216 312 0 5 -13 24 -29 41 -15 16
-26 33 -23 36 3 3 -1 5 -8 5 -7 0 -10 3 -7 7 4 3 -3 16 -16 27 -12 12 -35 41
-52 66 -16 25 -32 47 -35 50 -3 3 -14 21 -24 40 -11 19 -33 54 -50 77 -93 127
-165 229 -226 318 -38 55 -73 105 -77 110 -35 43 -208 291 -235 336 -48 79
-150 219 -160 219 -4 0 -8 5 -8 11 0 12 -56 93 -255 374 -160 226 -158 223
-175 253 -24 43 -63 96 -84 114 -10 10 -15 18 -10 18 5 0 -4 11 -19 25 -15 14
-27 30 -27 36 0 9 -8 21 -37 54 -7 7 -13 16 -13 20 0 5 -82 123 -232 334 -26
36 -86 125 -134 196 -48 72 -97 140 -108 152 -22 22 -61 79 -172 248 -36 55
-76 111 -88 125 -12 14 -34 43 -49 65 -31 48 -111 164 -152 221 -158 221 -179
251 -229 324 -17 25 -34 47 -38 48 -4 2 -8 9 -8 15 0 13 -38 71 -101 152 -25
33 -68 93 -95 134 -27 40 -58 86 -69 101 -11 15 -33 47 -49 71 -17 24 -40 55
-52 69 -12 14 -54 72 -93 130 -39 58 -84 123 -100 146 -15 22 -30 45 -32 50
-15 34 -66 104 -76 104 -7 0 -15 11 -19 25 -3 14 -12 29 -18 33 -7 4 -44 54
-82 112 -39 58 -104 153 -145 210 -40 58 -81 114 -89 126 -48 70 -114 164
-140 199 -17 22 -37 55 -45 73 -8 17 -19 32 -24 32 -5 0 -45 55 -90 123 -113
170 -116 174 -169 247 -42 58 -133 187 -253 358 -22 31 -63 89 -90 127 -28 39
-97 140 -154 225 -56 85 -115 168 -129 183 -14 15 -26 32 -26 38 0 5 -4 9 -10
9 -5 0 -10 5 -10 11 0 10 -19 38 -174 257 -169 238 -252 359 -266 386 -8 16
-28 43 -44 60 -16 17 -49 60 -72 96 -107 161 -152 226 -192 279 -40 53 -87
120 -168 241 -21 30 -68 96 -104 145 -37 50 -97 135 -134 190 -124 188 -171
257 -184 271 -7 7 -28 35 -46 61 -18 27 -47 68 -64 93 -18 25 -48 68 -66 96
-19 28 -49 71 -67 95 -80 106 -130 178 -231 332 -38 59 -75 107 -81 107 -6 0
-7 3 -4 6 4 4 -11 28 -32 53 -20 25 -55 73 -76 106 -22 33 -78 114 -126 180
-121 169 -262 375 -278 407 -7 14 -26 40 -42 58 -16 17 -29 35 -29 41 0 5 -4
9 -8 9 -5 0 -28 28 -50 63 -123 182 -298 434 -534 766 -26 36 -64 92 -85 124
-21 31 -73 108 -117 170 -253 362 -307 437 -364 516 -65 90 -74 104 -179 263
-35 54 -69 101 -76 105 -16 10 -57 69 -57 82 0 5 -4 11 -8 13 -4 2 -34 44 -66
93 -32 50 -76 113 -98 140 -21 28 -54 73 -73 100 -19 28 -61 88 -92 134 -32
46 -75 108 -95 138 -20 31 -45 64 -54 74 -9 11 -14 19 -10 19 4 0 -3 10 -16
23 -13 12 -41 49 -63 82 -22 33 -42 62 -46 65 -3 3 -12 17 -20 32 -20 38 -107
166 -149 218 -20 25 -54 71 -76 104 -21 32 -49 72 -61 90 -12 17 -22 34 -22
38 -1 4 486 7 1082 8 858 0 1086 -2 1098 -12z"/>
</g>
</svg>
